<?xml version="1.0" encoding="UTF-8"?>
<svg id="Layer_2" data-name="Layer 2" xmlns="http://www.w3.org/2000/svg" viewBox="0 0 322.88 322.88">
  <defs>
    <style>
      .cls-1 {
        fill: #fff;
      }

      .cls-2 {
        fill: #00a0dd;
      }
    </style>
  </defs>
  <g id="Bolt">
    <rect class="cls-1" width="322.88" height="322.88"/>
    <g>
      <path class="cls-2" d="M106.19,112.99v5.4c-3.6,1.96-7.75,2.94-12.46,2.94-3.83,0-7.07-.77-9.74-2.31-2.67-1.54-4.77-3.65-6.33-6.35s-2.33-5.62-2.33-8.76c0-4.99,1.78-9.18,5.34-12.58,3.56-3.4,7.94-5.1,13.16-5.1,3.6,0,7.59.94,11.99,2.82v5.27c-4.01-2.29-7.92-3.43-11.75-3.43s-7.18,1.24-9.77,3.72-3.89,5.58-3.89,9.31,1.28,6.85,3.83,9.27c2.55,2.42,5.81,3.63,9.79,3.63s8.21-1.28,12.16-3.83Z"/>
      <path class="cls-2" d="M127.77,96.95h3.45v13.61c0,1.84-.14,3.23-.4,4.17-.27.94-.6,1.72-1,2.34-.4.62-.88,1.18-1.45,1.67-1.9,1.64-4.38,2.46-7.45,2.46s-5.63-.81-7.52-2.44c-.57-.5-1.06-1.07-1.45-1.69-.39-.62-.72-1.39-.98-2.29-.26-.9-.39-2.32-.39-4.26v-13.58h3.45v13.61c0,2.25.26,3.82.77,4.7s1.3,1.59,2.35,2.12,2.3.8,3.73.8c2.04,0,3.7-.53,4.98-1.6.68-.57,1.16-1.25,1.46-2.03s.45-2.11.45-4v-13.61Z"/>
      <path class="cls-2" d="M136.08,120.93v-23.98h6.01c2.43,0,4.35.6,5.78,1.8,1.43,1.2,2.14,2.83,2.14,4.88,0,1.4-.35,2.6-1.05,3.62s-1.7,1.78-3,2.28c.77.5,1.52,1.19,2.25,2.06s1.76,2.39,3.09,4.55c.84,1.36,1.51,2.39,2.01,3.07l1.27,1.72h-4.09l-1.05-1.58c-.03-.06-.1-.15-.21-.29l-.67-.94-1.06-1.75-1.15-1.87c-.71-.98-1.36-1.77-1.95-2.35-.59-.58-1.12-1-1.6-1.26-.48-.26-1.27-.39-2.4-.39h-.89v10.44h-3.43ZM140.55,99.87h-1.03v7.57h1.3c1.74,0,2.93-.15,3.58-.45.65-.3,1.15-.75,1.51-1.35.36-.6.54-1.28.54-2.05s-.2-1.44-.6-2.05-.96-1.04-1.69-1.3c-.73-.25-1.93-.38-3.61-.38Z"/>
      <path class="cls-2" d="M182.94,96.61c3.71,0,6.79,1.17,9.25,3.52,2.47,2.35,3.7,5.29,3.7,8.82s-1.24,6.46-3.73,8.78c-2.49,2.32-5.62,3.48-9.41,3.48s-6.63-1.16-9.03-3.48c-2.41-2.32-3.61-5.22-3.61-8.71s1.21-6.55,3.64-8.89,5.49-3.52,9.2-3.52ZM183.08,99.87c-2.75,0-5,.86-6.77,2.58-1.77,1.72-2.65,3.91-2.65,6.58s.89,4.74,2.66,6.46,3.99,2.58,6.66,2.58,4.91-.88,6.7-2.63c1.79-1.75,2.68-3.93,2.68-6.54s-.9-4.68-2.68-6.41c-1.79-1.73-3.99-2.6-6.59-2.6Z"/>
      <path class="cls-2" d="M206.06,110.89l-2.61-1.59c-1.64-1-2.8-1.98-3.49-2.95-.69-.97-1.04-2.08-1.04-3.34,0-1.89.65-3.42,1.97-4.6,1.31-1.18,3.01-1.77,5.11-1.77s3.84.56,5.51,1.69v3.9c-1.73-1.66-3.59-2.49-5.58-2.49-1.12,0-2.04.26-2.76.78s-1.08,1.18-1.08,1.99c0,.72.26,1.39.8,2.02s1.38,1.29,2.56,1.98l2.62,1.55c2.93,1.75,4.39,3.97,4.39,6.67,0,1.92-.64,3.49-1.93,4.69-1.29,1.2-2.96,1.8-5.02,1.8-2.37,0-4.53-.73-6.47-2.18v-4.36c1.85,2.35,4,3.52,6.44,3.52,1.08,0,1.97-.3,2.69-.9.71-.6,1.07-1.35,1.07-2.25,0-1.46-1.05-2.84-3.16-4.15Z"/>
      <path class="cls-2" d="M216.26,96.95h3.43v23.98h-3.43v-23.98Z"/>
      <path class="cls-2" d="M222.97,96.92h20.04v3.06h-8.36v20.96h-3.45v-20.96h-8.22v-3.06Z"/>
      <path class="cls-2" d="M260.68,96.95h4.17l-8.86,11.3v12.69h-3.52v-12.69l-8.86-11.3h4.14l6.42,8.27,6.51-8.27Z"/>
    </g>
    <path class="cls-2" d="M160.64,111.6c-.08.81-.16,1.58-.24,2.35-.08.78-.16,1.55-.24,2.33-.08.77-.16,1.55-.24,2.32-.09.83-.23,2.25-.22,2.33,1.46-4.11,2.92-8.21,4.39-12.33-.44.15-.86.3-1.31.44.09-.33.18-.64.27-.94.09-.31.17-.61.26-.92.09-.31.17-.61.26-.92.09-.3.17-.6.26-.91.09-.31.17-.61.26-.92.09-.31.17-.61.26-.92.09-.3.18-.6.26-.93-.14.04-.26.07-.38.11-.12.04-.24.08-.37.11-.12.03-.24.08-.37.09.1-.35.2-.68.3-1.01.1-.33.2-.66.29-.99.1-.33.2-.66.29-.99.1-.33.2-.67.3-1,.1-.33.2-.66.29-.99.1-.33.2-.65.29-1-.03,0-.04,0-.05,0-.23.05-.46.1-.68.15-.3.06-.6.13-.9.19-.3.07-.6.13-.9.2-.34.07-.67.14-1.01.22-.34.07-.67.15-1.01.22-.33.07-.67.14-1,.21-.06.01-.06.02-.07.12-.02.25-.04.5-.07.75-.04.41-.07.83-.11,1.24-.04.42-.07.84-.11,1.26-.04.48-.08.95-.12,1.43-.04.48-.08.95-.12,1.43-.04.48-.08.95-.12,1.43,0,.1-.02.21-.02.32.2-.08.4-.16.59-.23.19-.07.38-.16.59-.23-.25,2.19-.5,4.35-.75,6.54.42-.18.82-.36,1.24-.55Z"/>
    <g>
      <path class="cls-2" d="M79.83,159.45v5.4c-3.6,1.96-7.75,2.94-12.46,2.94-3.83,0-7.07-.77-9.74-2.31-2.67-1.54-4.77-3.65-6.33-6.35s-2.33-5.62-2.33-8.76c0-4.99,1.78-9.18,5.33-12.58,3.56-3.4,7.94-5.1,13.16-5.1,3.6,0,7.59.94,11.99,2.82v5.27c-4.01-2.29-7.92-3.43-11.75-3.43s-7.18,1.24-9.77,3.72-3.89,5.58-3.89,9.31,1.28,6.85,3.83,9.27c2.55,2.42,5.81,3.63,9.79,3.63s8.21-1.28,12.16-3.83Z"/>
      <path class="cls-2" d="M96.5,143.07c3.71,0,6.79,1.17,9.26,3.52s3.7,5.29,3.7,8.82-1.24,6.46-3.73,8.78-5.62,3.48-9.41,3.48-6.63-1.16-9.03-3.48c-2.41-2.32-3.61-5.22-3.61-8.71s1.21-6.55,3.64-8.89,5.49-3.52,9.2-3.52ZM96.64,146.33c-2.75,0-5,.86-6.77,2.58s-2.65,3.91-2.65,6.58.89,4.74,2.66,6.46,3.99,2.58,6.66,2.58,4.91-.88,6.7-2.63,2.68-3.93,2.68-6.54-.9-4.68-2.68-6.41-3.99-2.6-6.59-2.6Z"/>
      <path class="cls-2" d="M132.73,143.41h3.26v23.98h-2.95l-16.04-18.47v18.47h-3.23v-23.98h2.78l16.17,18.63v-18.63Z"/>
      <path class="cls-2" d="M147.07,157.35l-2.61-1.59c-1.64-1-2.8-1.98-3.49-2.95s-1.04-2.08-1.04-3.34c0-1.89.65-3.42,1.97-4.6s3.01-1.77,5.11-1.77,3.84.56,5.51,1.69v3.9c-1.73-1.66-3.59-2.49-5.58-2.49-1.12,0-2.04.26-2.76.78s-1.08,1.18-1.08,1.99c0,.72.27,1.39.8,2.02.53.63,1.38,1.29,2.56,1.98l2.62,1.55c2.93,1.75,4.39,3.97,4.39,6.67,0,1.92-.64,3.49-1.93,4.69-1.29,1.2-2.96,1.8-5.02,1.8-2.37,0-4.53-.73-6.47-2.18v-4.36c1.85,2.35,4,3.52,6.44,3.52,1.08,0,1.97-.3,2.69-.9.71-.6,1.07-1.35,1.07-2.25,0-1.46-1.05-2.84-3.16-4.15Z"/>
      <path class="cls-2" d="M169,143.07c3.71,0,6.79,1.17,9.26,3.52s3.7,5.29,3.7,8.82-1.24,6.46-3.73,8.78-5.62,3.48-9.41,3.48-6.63-1.16-9.03-3.48c-2.41-2.32-3.61-5.22-3.61-8.71s1.21-6.55,3.64-8.89,5.49-3.52,9.2-3.52ZM169.14,146.33c-2.75,0-5,.86-6.77,2.58s-2.65,3.91-2.65,6.58.89,4.74,2.66,6.46,3.99,2.58,6.66,2.58,4.91-.88,6.7-2.63,2.68-3.93,2.68-6.54-.9-4.68-2.68-6.41-3.99-2.6-6.59-2.6Z"/>
      <path class="cls-2" d="M186.28,167.4v-23.98h6.01c2.43,0,4.35.6,5.78,1.8,1.43,1.2,2.14,2.83,2.14,4.88,0,1.4-.35,2.6-1.05,3.62s-1.7,1.78-3,2.28c.77.5,1.52,1.19,2.25,2.06s1.76,2.39,3.09,4.55c.84,1.36,1.51,2.39,2.01,3.07l1.27,1.72h-4.09l-1.05-1.58c-.03-.06-.1-.15-.21-.29l-.67-.94-1.06-1.75-1.15-1.87c-.71-.98-1.36-1.77-1.95-2.35-.59-.58-1.12-1-1.6-1.26-.48-.26-1.27-.39-2.4-.39h-.89v10.44h-3.43ZM190.75,146.33h-1.03v7.57h1.3c1.74,0,2.93-.15,3.58-.45s1.15-.75,1.51-1.35c.36-.6.54-1.28.54-2.05s-.2-1.44-.6-2.05-.96-1.04-1.69-1.3-1.93-.38-3.61-.38Z"/>
      <path class="cls-2" d="M202.22,143.38h20.04v3.06h-8.36v20.96h-3.45v-20.96h-8.22v-3.06Z"/>
      <path class="cls-2" d="M225.53,143.41h3.43v23.98h-3.43v-23.98Z"/>
      <path class="cls-2" d="M250.97,143.41h3.45v13.61c0,1.84-.13,3.23-.4,4.17-.27.94-.6,1.72-1,2.34-.4.62-.88,1.18-1.45,1.67-1.9,1.64-4.38,2.46-7.45,2.46s-5.63-.81-7.52-2.44c-.57-.5-1.06-1.07-1.45-1.69-.39-.62-.72-1.39-.98-2.29-.26-.9-.39-2.32-.39-4.26v-13.58h3.45v13.61c0,2.25.26,3.82.77,4.7s1.3,1.59,2.35,2.12,2.29.8,3.73.8c2.04,0,3.7-.53,4.98-1.6.68-.57,1.16-1.25,1.46-2.03s.45-2.11.45-4v-13.61Z"/>
      <path class="cls-2" d="M278.25,143.41h3.21v23.98h-3.45v-18.66l-7.37,9.27h-.64l-7.46-9.27v18.66h-3.43v-23.98h3.25l7.97,9.85,7.92-9.85Z"/>
    </g>
  </g>
</svg>