<svg xmlns="http://www.w3.org/2000/svg" style="display:none">
<symbol id="fa-b-cc-visa" viewBox="0 0 576 512"><path transform="translate(0,512) scale(1,-1)" d="M470 217Q471 215 474 197Q478 180 479 172H446Q449 180 455 197Q461 213 462 215Q462 215 464 220Q466 225 467 230L470 217ZM576 368V16V368V16Q575 -4 562 -18Q548 -31 528 -32H48Q28 -31 14 -18Q1 -4 0 16V368Q1 388 14 402Q28 415 48 416H528Q548 415 562 402Q575 388 576 368ZM153 117 216 272 153 117 216 272H173L134 166L130 187L116 259Q111 273 97 272H33L32 269Q56 263 74 252L110 117H153ZM247 117 272 272 247 117 272 272H232L207 117H247ZM387 167Q387 193 353 210Q331 219 330 229Q330 241 353 242Q373 242 383 236L387 235L392 268Q380 274 356 275Q326 275 308 261Q289 247 289 223Q289 207 300 197Q312 187 324 181Q346 171 345 162Q344 154 337 150Q330 147 321 147Q300 147 283 155L278 158L272 123Q288 115 317 114Q349 115 368 129Q386 143 387 167ZM528 117 496 272 528 117 496 272H465Q450 273 444 259L384 117H426Q426 118 430 127Q433 136 434 140H486Q487 135 489 126Q491 118 491 117Q491 117 491 117H528Z"/></symbol>
<symbol id="fa-b-twitter" viewBox="0 0 512 512"><path transform="translate(0,512) scale(1,-1)" d="M459 296Q460 289 460 283Q460 283 460 283Q460 212 425 144Q391 76 324 31Q258 -14 161 -16Q71 -15 0 31Q12 30 25 30Q100 31 156 75Q120 76 94 96Q68 116 58 147Q67 146 77 146Q92 146 105 149Q68 157 45 185Q22 213 21 252V254Q42 242 68 240Q24 271 21 328Q22 357 36 381Q75 333 131 304Q186 275 252 271Q250 283 250 295Q251 339 280 369Q310 399 354 400Q401 399 431 367Q467 374 498 392Q485 355 452 334Q483 338 512 351Q490 319 459 296Z"/></symbol>
<symbol id="fa-b-windows" viewBox="0 0 448 512"><path transform="translate(0,512) scale(1,-1)" d="M0 354 184 380 0 354 184 380V202H0V354ZM0 30 184 4 0 30 184 4V180H0V30ZM204 2 448 -32 204 2 448 -32V180H204V2ZM204 382V202V382V202H448V416L204 382Z"/></symbol>
<symbol id="fa-r-address-card" viewBox="0 0 576 512"><path transform="translate(0,512) scale(1,-1)" d="M512 368Q527 367 528 352V32Q527 17 512 16H64Q49 17 48 32V352Q49 367 64 368H512ZM64 416Q37 415 19 397Q1 379 0 352V32Q1 5 19 -13Q37 -31 64 -32H512Q539 -31 557 -13Q575 5 576 32V352Q575 379 557 397Q539 415 512 416H64ZM208 192Q244 193 263 224Q281 256 263 288Q244 319 208 320Q172 319 153 288Q135 256 153 224Q172 193 208 192ZM176 160Q142 159 119 137Q97 114 96 80Q97 65 112 64H304Q319 65 320 80Q319 114 297 137Q274 159 240 160H176ZM376 304Q354 302 352 280Q354 258 376 256H456Q478 258 480 280Q478 302 456 304H376ZM376 208Q354 206 352 184Q354 162 376 160H456Q478 162 480 184Q478 206 456 208H376Z"/></symbol>
<symbol id="fa-r-building-o" viewBox="0 0 384 512"><path transform="translate(0,512) scale(1,-1)" d="M64 400Q49 399 48 384V0Q49 -15 64 -16H144V48Q145 68 158 82Q172 95 192 96Q212 95 226 82Q239 68 240 48V-16H320Q335 -15 336 0V384Q335 399 320 400H64ZM0 384Q1 411 19 429Q37 447 64 448H320Q347 447 365 429Q383 411 384 384V0Q383 -27 365 -45Q347 -63 320 -64H64Q37 -63 19 -45Q1 -27 0 0V384ZM88 344Q89 359 104 360H152Q167 359 168 344V296Q167 281 152 280H104Q89 281 88 296V344ZM232 360H280H232H280Q295 359 296 344V296Q295 281 280 280H232Q217 281 216 296V344Q217 359 232 360ZM88 216Q89 231 104 232H152Q167 231 168 216V168Q167 153 152 152H104Q89 153 88 168V216ZM232 232H280H232H280Q295 231 296 216V168Q295 153 280 152H232Q217 153 216 168V216Q217 231 232 232Z"/></symbol>
<symbol id="fa-r-compass" viewBox="0 0 512 512"><path transform="translate(0,512) scale(1,-1)" d="M464 192Q464 249 436 296Q409 343 360 372Q311 400 256 400Q201 400 152 372Q103 343 76 296Q48 249 48 192Q48 135 76 88Q103 41 152 12Q201 -16 256 -16Q311 -16 360 12Q409 41 436 88Q464 135 464 192ZM0 192Q1 262 34 320Q68 378 128 414Q189 448 256 448Q323 448 384 414Q444 378 478 320Q511 262 512 192Q511 122 478 64Q444 6 384 -30Q323 -64 256 -64Q189 -64 128 -30Q68 6 34 64Q1 122 0 192ZM307 123 162 67 307 123 162 67Q147 63 137 73Q127 83 131 98L187 243Q192 256 205 261L350 317Q365 321 375 311Q385 301 381 286L325 141Q320 128 307 123ZM288 192Q288 206 279 215Q270 224 256 224Q242 224 233 215Q224 206 224 192Q224 178 233 169Q242 160 256 160Q270 160 279 169Q288 178 288 192Z"/></symbol>
<symbol id="fa-r-eye" viewBox="0 0 576 512"><path transform="translate(0,512) scale(1,-1)" d="M288 368Q239 367 199 348Q159 330 128 300Q99 273 79 244Q60 215 49 192Q60 169 79 140Q99 111 128 84Q159 54 199 36Q239 17 288 16Q337 17 377 36Q417 54 448 84Q477 111 497 140Q516 169 527 192Q516 215 497 244Q477 273 448 300Q417 330 377 348Q337 367 288 368ZM95 335Q131 369 179 392Q227 415 288 416Q349 415 397 392Q445 369 481 335Q516 302 539 267Q562 232 574 204Q579 192 574 180Q562 152 539 117Q516 82 481 49Q445 15 397 -8Q349 -31 288 -32Q227 -31 179 -8Q131 15 95 49Q60 82 37 117Q14 152 3 180Q-2 192 3 204Q14 232 37 267Q60 302 95 335ZM288 112Q322 113 345 135Q367 158 368 192Q367 226 345 249Q322 271 288 272Q287 272 287 272Q287 272 286 272Q288 264 288 256Q287 229 269 211Q251 193 224 192Q216 192 208 194Q208 193 208 193Q208 193 208 192Q209 158 231 135Q254 113 288 112ZM288 320Q323 320 352 303Q381 286 399 256Q416 226 416 192Q416 158 399 128Q381 98 352 81Q323 64 288 64Q253 64 224 81Q195 98 177 128Q160 158 160 192Q160 226 177 256Q195 286 224 303Q253 320 288 320Z"/></symbol>
<symbol id="fa-r-hand-peace-o" viewBox="0 0 512 512"><path transform="translate(0,512) scale(1,-1)" d="M251 447Q224 449 204 433Q184 417 181 390L174 329L157 378Q147 404 124 415Q101 426 75 417Q50 408 39 385Q28 362 36 336L89 186Q65 163 64 128Q64 128 64 128Q64 128 64 128V104Q66 33 113 -15Q161 -62 232 -64H280Q351 -62 399 -15Q446 33 448 104V176V192V224Q447 251 429 269Q411 287 384 288Q372 288 362 284Q344 318 304 320Q303 320 303 320Q302 320 302 320L308 376Q310 403 294 423Q278 443 251 447ZM251 291Q240 276 240 256V208Q240 207 240 207Q240 206 240 206Q232 208 224 208H217L211 223L228 385Q231 399 246 399Q260 396 260 381L251 291ZM111 362 166 208 111 362 166 208H144Q138 208 132 207L81 352Q78 366 91 372Q105 376 111 362ZM288 256Q289 271 304 272Q319 271 320 256V224V208Q319 193 304 192Q289 193 288 208V256ZM326 148Q344 114 384 112Q392 112 400 114V104Q399 53 365 19Q331 -15 280 -16H232Q181 -15 147 19Q113 53 112 104V128Q112 128 112 128Q112 128 112 128Q112 142 121 151Q130 160 144 160H224Q239 159 240 144Q239 129 224 128H184Q162 126 160 104Q162 82 184 80H224Q251 81 269 99Q287 117 288 144Q288 145 288 145Q288 146 288 146Q296 144 304 144Q316 144 326 148ZM400 176Q399 161 384 160Q369 161 368 176V208V224Q369 239 384 240Q399 239 400 224V192V176Z"/></symbol>
<symbol id="fa-r-heart-o" viewBox="0 0 512 512"><path transform="translate(0,512) scale(1,-1)" d="M226 -20 223 -18 226 -20 223 -18 48 145Q1 190 0 255V258Q1 312 34 352Q66 391 119 402Q181 413 231 378Q245 369 256 356Q262 363 270 369Q275 374 281 378Q281 378 281 378Q281 378 281 378Q331 413 393 403Q446 392 478 352Q511 312 512 258V255Q511 190 464 145L289 -18L286 -20Q273 -32 256 -32Q239 -32 226 -20ZM239 303Q239 303 238 304Q238 304 238 304L220 324Q220 324 220 324Q202 344 178 352Q154 360 128 355Q93 348 71 321Q49 295 48 258V255Q49 211 81 180L256 17L431 180Q463 211 464 255V258Q463 295 441 321Q419 348 384 355Q358 360 334 352Q310 344 292 324Q292 324 292 324Q292 324 292 324L274 304Q274 304 273 303Q273 303 273 303Q266 296 256 296Q246 296 239 303Z"/></symbol>
<symbol id="fa-r-id-badge" viewBox="0 0 384 512"><path transform="translate(0,512) scale(1,-1)" d="M256 400V384V400V384Q256 370 247 361Q238 352 224 352H160Q146 352 137 361Q128 370 128 384V400H64Q49 399 48 384V0Q49 -15 64 -16H320Q335 -15 336 0V384Q335 399 320 400H256ZM0 384Q1 411 19 429Q37 447 64 448H320Q347 447 365 429Q383 411 384 384V0Q383 -27 365 -45Q347 -63 320 -64H64Q37 -63 19 -45Q1 -27 0 0V384ZM160 128H224H160H224Q258 127 281 105Q303 82 304 48Q303 33 288 32H96Q81 33 80 48Q81 82 103 105Q126 127 160 128ZM128 224Q129 260 160 279Q192 297 224 279Q255 260 256 224Q255 188 224 169Q192 151 160 169Q129 188 128 224Z"/></symbol>
<symbol id="fa-r-image" viewBox="0 0 512 512"><path transform="translate(0,512) scale(1,-1)" d="M448 368Q463 367 464 352V32L459 39L323 215Q316 224 304 224Q292 224 285 215L202 107L172 150Q164 160 152 160Q140 160 133 150L53 38L48 32V352Q49 367 64 368H448ZM64 416Q37 415 19 397Q1 379 0 352V32Q1 5 19 -13Q37 -31 64 -32H448Q475 -31 493 -13Q511 5 512 32V352Q511 379 493 397Q475 415 448 416H64ZM144 224Q171 225 186 248Q198 272 186 296Q171 319 144 320Q117 319 102 296Q90 272 102 248Q117 225 144 224Z"/></symbol>
<symbol id="fa-r-newspaper" viewBox="0 0 512 512"><path transform="translate(0,512) scale(1,-1)" d="M168 368Q146 366 144 344V40Q144 27 140 16H440Q462 18 464 40V344Q462 366 440 368H168ZM72 -32Q41 -31 21 -11Q1 9 0 40V336Q2 358 24 360Q46 358 48 336V40Q50 18 72 16Q94 18 96 40V344Q97 375 117 395Q137 415 168 416H440Q471 415 491 395Q511 375 512 344V40Q511 9 491 -11Q471 -31 440 -32H72ZM176 312Q178 334 200 336H296Q318 334 320 312V232Q318 210 296 208H200Q178 210 176 232V312ZM376 336H408H376H408Q430 334 432 312Q430 290 408 288H376Q354 290 352 312Q354 334 376 336ZM376 256H408H376H408Q430 254 432 232Q430 210 408 208H376Q354 210 352 232Q354 254 376 256ZM200 176H408H200H408Q430 174 432 152Q430 130 408 128H200Q178 130 176 152Q178 174 200 176ZM200 96H408H200H408Q430 94 432 72Q430 50 408 48H200Q178 50 176 72Q178 94 200 96Z"/></symbol>
<symbol id="fa-r-play-circle" viewBox="0 0 512 512"><path transform="translate(0,512) scale(1,-1)" d="M464 192Q464 249 436 296Q409 343 360 372Q311 400 256 400Q201 400 152 372Q103 343 76 296Q48 249 48 192Q48 135 76 88Q103 41 152 12Q201 -16 256 -16Q311 -16 360 12Q409 41 436 88Q464 135 464 192ZM0 192Q1 262 34 320Q68 378 128 414Q189 448 256 448Q323 448 384 414Q444 378 478 320Q511 262 512 192Q511 122 478 64Q444 6 384 -30Q323 -64 256 -64Q189 -64 128 -30Q68 6 34 64Q1 122 0 192ZM188 301Q201 307 213 300L357 212Q368 205 368 192Q368 179 357 171L213 83Q201 77 188 83Q176 90 176 104V280Q176 294 188 301Z"/></symbol>
<symbol id="fa-s-angle-double-up" viewBox="0 0 448 512"><path transform="translate(0,512) scale(1,-1)" d="M247 407Q237 416 224 416Q211 416 201 407L41 247Q32 237 32 224Q32 211 41 201Q51 192 64 192Q77 192 87 201L224 339L361 201Q371 192 384 192Q397 192 407 201Q416 211 416 224Q416 237 407 247L247 407ZM407 55 247 215 407 55 247 215Q237 224 224 224Q211 224 201 215L41 55Q32 45 32 32Q32 19 41 9Q51 0 64 0Q77 0 87 9L224 147L361 9Q371 0 384 0Q397 0 407 9Q416 19 416 32Q416 45 407 55Z"/></symbol>
<symbol id="fa-s-angle-down" viewBox="0 0 448 512"><path transform="translate(0,512) scale(1,-1)" d="M201 73Q211 64 224 64Q237 64 247 73L407 233Q416 243 416 256Q416 269 407 279Q397 288 384 288Q371 288 361 279L224 141L87 279Q77 288 64 288Q51 288 41 279Q32 269 32 256Q32 243 41 233L201 73Z"/></symbol>
<symbol id="fa-s-atom" viewBox="0 0 512 512"><path transform="translate(0,512) scale(1,-1)" d="M256 49Q238 41 221 36Q234 11 243 5Q253 -1 256 0Q259 -1 269 5Q278 11 291 36Q274 42 256 49ZM446 192Q471 158 478 125Q485 92 470 64Q436 11 354 21Q338 -19 313 -41Q288 -64 256 -64Q224 -64 199 -41Q174 -19 158 21Q76 11 42 64Q27 92 34 125Q41 158 66 192Q41 226 34 259Q27 292 42 320Q76 373 158 363Q174 403 199 425Q224 448 256 448Q288 448 313 425Q338 403 354 363Q436 373 470 320Q485 292 478 259Q471 226 446 192ZM380 125Q378 103 374 83Q397 83 405 88Q413 92 414 95Q416 98 416 109Q415 121 402 143Q392 134 380 125ZM374 300Q378 281 380 259Q392 250 402 241Q415 263 416 275Q416 286 414 289Q413 292 405 296Q397 301 374 300ZM291 348Q278 373 269 379Q259 385 256 384Q253 385 243 379Q234 373 221 348Q238 342 256 335Q274 343 291 348ZM132 259Q134 281 139 301Q115 301 107 296Q99 292 98 289Q96 286 96 275Q97 263 110 241Q121 250 132 259ZM110 143Q97 121 96 109Q96 98 98 95Q99 92 107 88Q115 83 139 83Q134 103 132 125Q120 134 110 143ZM336 192Q335 237 296 261Q256 283 216 261Q177 237 176 192Q177 147 216 123Q256 101 296 123Q335 147 336 192ZM256 224Q270 224 279 215Q288 206 288 192Q288 178 279 169Q270 160 256 160Q242 160 233 169Q224 178 224 192Q224 206 233 215Q242 224 256 224Z"/></symbol>
<symbol id="fa-s-balance-scale" viewBox="0 0 640 512"><path transform="translate(0,512) scale(1,-1)" d="M384 416H512H384H512Q526 416 535 407Q544 398 544 384Q544 370 535 361Q526 352 512 352H398Q389 312 352 295V0H512Q526 0 535 -9Q544 -18 544 -32Q544 -46 535 -55Q526 -64 512 -64H320H128Q114 -64 105 -55Q96 -46 96 -32Q96 -18 105 -9Q114 0 128 0H288V295Q251 312 242 352H128Q114 352 105 361Q96 370 96 384Q96 398 105 407Q114 416 128 416H256Q279 447 320 448Q361 447 384 416ZM440 128H585H440H585L512 252L440 128ZM512 32Q464 33 429 55Q395 77 386 111Q383 128 393 143L488 306Q496 320 512 320Q528 319 536 306L631 143Q641 128 638 111Q629 77 595 55Q560 33 512 32ZM127 252 54 128 127 252 54 128H199L127 252ZM1 111Q-2 128 8 143L103 306Q111 320 127 320Q143 319 151 306L246 143Q256 128 253 111Q244 77 209 55Q175 33 127 32Q79 33 44 55Q10 77 1 111Z"/></symbol>
<symbol id="fa-s-bar-chart-o" viewBox="0 0 512 512"><path transform="translate(0,512) scale(1,-1)" d="M32 416Q46 416 55 407Q64 398 64 384V48Q65 33 80 32H480Q494 32 503 23Q512 14 512 0Q512 -14 503 -23Q494 -32 480 -32H80Q46 -31 23 -9Q1 14 0 48V384Q0 398 9 407Q18 416 32 416ZM160 224Q174 224 183 215Q192 206 192 192V128Q192 114 183 105Q174 96 160 96Q146 96 137 105Q128 114 128 128V192Q128 206 137 215Q146 224 160 224ZM288 288V128V288V128Q288 114 279 105Q270 96 256 96Q242 96 233 105Q224 114 224 128V288Q224 302 233 311Q242 320 256 320Q270 320 279 311Q288 302 288 288ZM352 256Q366 256 375 247Q384 238 384 224V128Q384 114 375 105Q366 96 352 96Q338 96 329 105Q320 114 320 128V224Q320 238 329 247Q338 256 352 256ZM480 352V128V352V128Q480 114 471 105Q462 96 448 96Q434 96 425 105Q416 114 416 128V352Q416 366 425 375Q434 384 448 384Q462 384 471 375Q480 366 480 352Z"/></symbol>
<symbol id="fa-s-bars" viewBox="0 0 448 512"><path transform="translate(0,512) scale(1,-1)" d="M0 352Q0 366 9 375Q18 384 32 384H416Q430 384 439 375Q448 366 448 352Q448 338 439 329Q430 320 416 320H32Q18 320 9 329Q0 338 0 352ZM0 192Q0 206 9 215Q18 224 32 224H416Q430 224 439 215Q448 206 448 192Q448 178 439 169Q430 160 416 160H32Q18 160 9 169Q0 178 0 192ZM448 32Q448 18 439 9Q430 0 416 0H32Q18 0 9 9Q0 18 0 32Q0 46 9 55Q18 64 32 64H416Q430 64 439 55Q448 46 448 32Z"/></symbol>
<symbol id="fa-s-binoculars" viewBox="0 0 512 512"><path transform="translate(0,512) scale(1,-1)" d="M128 416H160H128H160Q174 416 183 407Q192 398 192 384V352H96V384Q96 398 105 407Q114 416 128 416ZM192 320V0V320V0Q192 -14 183 -23Q174 -32 160 -32H32Q18 -32 9 -23Q0 -14 0 0V59Q0 112 27 157Q48 192 53 232L61 292Q66 318 92 320H192ZM420 320Q446 318 452 292L459 232Q464 192 485 157Q512 112 512 59V0Q512 -14 503 -23Q494 -32 480 -32H352Q338 -32 329 -23Q320 -14 320 0V320H420ZM320 384Q320 398 329 407Q338 416 352 416H384Q398 416 407 407Q416 398 416 384V352H320V384ZM288 320V160V320V160H224V320H288Z"/></symbol>
<symbol id="fa-s-bolt" viewBox="0 0 448 512"><path transform="translate(0,512) scale(1,-1)" d="M349 403Q358 426 339 442Q318 455 299 440L43 216Q27 201 34 181Q43 161 64 160H176L99 -19Q90 -42 109 -58Q130 -71 149 -56L405 168Q421 183 414 203Q406 223 384 224H273L349 403Z"/></symbol>
<symbol id="fa-s-book" viewBox="0 0 448 512"><path transform="translate(0,512) scale(1,-1)" d="M96 448Q55 447 28 420Q1 393 0 352V32Q1 -9 28 -36Q55 -63 96 -64H384H416Q430 -64 439 -55Q448 -46 448 -32Q448 -18 439 -9Q430 0 416 0V64Q430 64 439 73Q448 82 448 96V416Q448 430 439 439Q430 448 416 448H384ZM96 64H352H96H352V0H96Q82 0 73 9Q64 18 64 32Q64 46 73 55Q82 64 96 64ZM128 304Q129 319 144 320H336Q351 319 352 304Q351 289 336 288H144Q129 289 128 304ZM144 256H336H144H336Q351 255 352 240Q351 225 336 224H144Q129 225 128 240Q129 255 144 256Z"/></symbol>
<symbol id="fa-s-brain" viewBox="0 0 512 512"><path transform="translate(0,512) scale(1,-1)" d="M184 448Q208 447 224 432Q239 416 240 392V-8Q239 -32 224 -48Q208 -63 184 -64Q162 -64 146 -50Q131 -36 128 -14Q120 -16 112 -16Q85 -15 67 3Q49 21 48 48Q48 59 52 69Q29 78 14 98Q0 118 0 144Q0 168 13 187Q25 206 46 216Q32 233 32 256Q32 279 46 296Q60 313 82 319Q80 327 80 336Q80 359 94 376Q107 392 128 398Q131 420 146 434Q162 448 184 448ZM328 448Q350 448 366 434Q381 420 384 398Q405 392 418 376Q432 359 432 336Q432 327 430 319Q452 313 466 296Q480 279 480 256Q480 233 466 216Q487 206 499 187Q512 168 512 144Q512 118 498 98Q483 78 460 69Q464 59 464 48Q463 21 445 3Q427 -15 400 -16Q392 -16 384 -14Q381 -36 366 -50Q350 -64 328 -64Q304 -63 288 -48Q273 -32 272 -8V392Q273 416 288 432Q304 447 328 448Z"/></symbol>
<symbol id="fa-s-building" viewBox="0 0 384 512"><path transform="translate(0,512) scale(1,-1)" d="M48 448Q28 447 14 434Q1 420 0 400V-16Q1 -36 14 -50Q28 -63 48 -64H144V16Q145 36 158 50Q172 63 192 64Q212 63 226 50Q239 36 240 16V-64H336Q356 -63 370 -50Q383 -36 384 -16V400Q383 420 370 434Q356 447 336 448H48ZM64 208Q65 223 80 224H112Q127 223 128 208V176Q127 161 112 160H80Q65 161 64 176V208ZM176 224H208H176H208Q223 223 224 208V176Q223 161 208 160H176Q161 161 160 176V208Q161 223 176 224ZM256 208Q257 223 272 224H304Q319 223 320 208V176Q319 161 304 160H272Q257 161 256 176V208ZM80 352H112H80H112Q127 351 128 336V304Q127 289 112 288H80Q65 289 64 304V336Q65 351 80 352ZM160 336Q161 351 176 352H208Q223 351 224 336V304Q223 289 208 288H176Q161 289 160 304V336ZM272 352H304H272H304Q319 351 320 336V304Q319 289 304 288H272Q257 289 256 304V336Q257 351 272 352Z"/></symbol>
<symbol id="fa-s-bullhorn" viewBox="0 0 512 512"><path transform="translate(0,512) scale(1,-1)" d="M480 416Q479 437 460 446Q441 453 425 439L382 395Q345 359 299 339Q252 320 201 320H192H64Q37 319 19 301Q1 283 0 256V160Q1 133 19 115Q37 97 64 96V-32Q64 -46 73 -55Q82 -64 96 -64H160Q174 -64 183 -55Q192 -46 192 -32V96H201Q252 96 299 76Q345 57 382 21L425 -23Q441 -37 460 -30Q479 -21 480 0V148Q494 155 503 171Q512 187 512 208Q512 229 503 245Q494 262 480 268V416ZM416 339V208V339V208V77Q371 117 316 138Q261 160 201 160H192V256H201Q261 256 316 278Q371 299 416 339Z"/></symbol>
<symbol id="fa-s-calendar" viewBox="0 0 448 512"><path transform="translate(0,512) scale(1,-1)" d="M128 448Q142 448 151 439Q160 430 160 416V384H288V416Q288 430 297 439Q306 448 320 448Q334 448 343 439Q352 430 352 416V384H400Q420 383 434 370Q447 356 448 336V288H0V336Q1 356 14 370Q28 383 48 384H96V416Q96 430 105 439Q114 448 128 448ZM0 256H448H0H448V-16Q447 -36 434 -50Q420 -63 400 -64H48Q28 -63 14 -50Q1 -36 0 -16V256ZM64 176V144V176V144Q65 129 80 128H112Q127 129 128 144V176Q127 191 112 192H80Q65 191 64 176ZM192 176V144V176V144Q193 129 208 128H240Q255 129 256 144V176Q255 191 240 192H208Q193 191 192 176ZM336 192Q321 191 320 176V144Q321 129 336 128H368Q383 129 384 144V176Q383 191 368 192H336ZM64 48V16V48V16Q65 1 80 0H112Q127 1 128 16V48Q127 63 112 64H80Q65 63 64 48ZM208 64Q193 63 192 48V16Q193 1 208 0H240Q255 1 256 16V48Q255 63 240 64H208ZM320 48V16V48V16Q321 1 336 0H368Q383 1 384 16V48Q383 63 368 64H336Q321 63 320 48Z"/></symbol>
<symbol id="fa-s-certificate" viewBox="0 0 512 512"><path transform="translate(0,512) scale(1,-1)" d="M211 441Q201 450 188 447Q174 443 171 430L155 367L93 385Q79 388 69 379Q60 369 63 355L81 293L18 277Q5 274 1 260Q-2 247 7 237L54 192L7 147Q-2 137 1 124Q5 110 18 106L81 91L63 29Q60 15 69 5Q79 -4 93 -1L155 17L171 -46Q174 -59 188 -63Q201 -66 211 -57L256 -11L301 -57Q311 -66 324 -63Q338 -59 342 -46L357 17L419 -1Q433 -4 443 5Q452 15 449 29L431 91L494 106Q507 110 511 124Q514 137 505 147L459 192L505 237Q514 247 511 260Q507 274 494 277L431 293L449 355Q452 369 443 379Q433 388 419 385L357 367L341 430Q338 443 324 447Q311 450 301 441L256 394L211 441Z"/></symbol>
<symbol id="fa-s-chalkboard-teacher" viewBox="0 0 640 512"><path transform="translate(0,512) scale(1,-1)" d="M160 384Q161 411 179 429Q197 447 224 448H576Q603 447 621 429Q639 411 640 384V96Q639 69 621 51Q603 33 576 32H337Q319 71 284 96H384V128Q384 142 393 151Q402 160 416 160H480Q494 160 503 151Q512 142 512 128V96H576V384H224V335Q195 352 160 352V384ZM160 320Q186 320 208 307Q230 294 243 272Q256 249 256 224Q256 199 243 176Q230 154 208 141Q186 128 160 128Q134 128 112 141Q90 154 77 176Q64 199 64 224Q64 249 77 272Q90 294 112 307Q134 320 160 320ZM133 96H187H133H187Q243 95 281 57Q319 19 320 -37Q318 -62 293 -64H27Q2 -62 0 -37Q1 19 39 57Q77 95 133 96Z"/></symbol>
<symbol id="fa-s-chart-line" viewBox="0 0 512 512"><path transform="translate(0,512) scale(1,-1)" d="M64 384Q64 398 55 407Q46 416 32 416Q18 416 9 407Q0 398 0 384V48Q1 14 23 -9Q46 -31 80 -32H480Q494 -32 503 -23Q512 -14 512 0Q512 14 503 23Q494 32 480 32H80Q65 33 64 48V384ZM471 297Q480 307 480 320Q480 333 471 343Q461 352 448 352Q435 352 425 343L320 237L263 295Q253 304 240 304Q227 304 217 295L105 183Q96 173 96 160Q96 147 105 137Q115 128 128 128Q141 128 151 137L240 227L297 169Q307 160 320 160Q333 160 343 169L471 297Z"/></symbol>
<symbol id="fa-s-chevron-left" viewBox="0 0 320 512"><path transform="translate(0,512) scale(1,-1)" d="M9 215Q0 205 0 192Q0 179 9 169L201 -23Q211 -32 224 -32Q237 -32 247 -23Q256 -13 256 0Q256 13 247 23L77 192L247 361Q256 371 256 384Q256 397 247 407Q237 416 224 416Q211 416 201 407L9 215Z"/></symbol>
<symbol id="fa-s-chevron-right" viewBox="0 0 320 512"><path transform="translate(0,512) scale(1,-1)" d="M311 215Q320 205 320 192Q320 179 311 169L119 -23Q109 -32 96 -32Q83 -32 73 -23Q64 -13 64 0Q64 13 73 23L243 192L73 361Q64 371 64 384Q64 397 73 407Q83 416 96 416Q109 416 119 407L311 215Z"/></symbol>
<symbol id="fa-s-clipboard-check" viewBox="0 0 384 512"><path transform="translate(0,512) scale(1,-1)" d="M192 448Q160 447 136 430Q112 412 102 384H64Q37 383 19 365Q1 347 0 320V0Q1 -27 19 -45Q37 -63 64 -64H320Q347 -63 365 -45Q383 -27 384 0V320Q383 347 365 365Q347 383 320 384H283Q272 412 248 430Q224 447 192 448ZM192 384Q206 384 215 375Q224 366 224 352Q224 338 215 329Q206 320 192 320Q178 320 169 329Q160 338 160 352Q160 366 169 375Q178 384 192 384ZM305 175 177 47 305 175 177 47Q160 33 143 47L79 111Q65 128 79 145Q96 159 113 145L160 98L271 209Q288 223 305 209Q319 192 305 175Z"/></symbol>
<symbol id="fa-s-cogs" viewBox="0 0 640 512"><path transform="translate(0,512) scale(1,-1)" d="M309 313Q320 323 315 338Q311 346 307 353L304 359Q299 366 294 373Q284 385 270 380L241 371Q225 384 205 392L199 421Q195 436 181 439Q171 440 160 440Q150 440 140 439Q125 436 121 421L115 392Q95 384 79 371L51 380Q36 385 26 373Q21 366 16 358L13 353Q9 346 5 338Q0 323 12 313L34 293Q32 283 32 272Q32 261 34 251L12 231Q0 221 5 206Q9 198 13 191L16 185Q20 178 26 171Q36 159 51 164L79 173Q95 160 115 152L121 123Q125 108 140 105Q150 104 160 104Q170 104 180 105Q195 108 199 123L205 152Q225 160 241 173L269 164Q284 159 294 171Q299 178 304 185L307 191Q311 198 315 206Q320 221 308 231L286 251Q288 261 288 272Q288 283 286 293L308 313ZM112 272Q113 299 136 314Q160 326 184 314Q207 299 208 272Q207 245 184 230Q160 218 136 230Q113 245 112 272ZM505 -53Q515 -64 530 -59Q538 -55 545 -51L551 -48Q558 -43 565 -38Q577 -28 572 -14L563 15Q576 31 584 51L613 57Q628 61 631 76Q632 86 632 96Q632 106 631 116Q628 131 613 135L584 141Q576 161 563 177L572 205Q577 220 565 230Q558 235 551 240L545 243Q538 247 530 251Q515 256 505 244L485 222Q475 224 464 224Q453 224 443 222L423 244Q413 256 398 251Q390 247 383 243L378 240Q370 235 363 230Q351 220 356 205L365 177Q352 161 344 141L315 135Q300 131 297 116Q296 106 296 96Q296 86 297 76Q300 61 315 57L344 51Q352 31 365 15L356 -13Q351 -28 363 -38Q370 -43 378 -48L383 -51Q390 -55 398 -59Q413 -64 423 -52L443 -30Q453 -32 464 -32Q475 -32 485 -30L505 -52ZM464 144Q491 143 506 120Q518 96 506 72Q491 49 464 48Q437 49 422 72Q410 96 422 120Q437 143 464 144Z"/></symbol>
<symbol id="fa-s-comments" viewBox="0 0 640 512"><path transform="translate(0,512) scale(1,-1)" d="M208 96Q296 98 355 148Q414 197 416 272Q414 347 355 396Q296 446 208 448Q120 446 61 396Q2 347 0 272Q1 213 40 169Q34 154 25 144Q18 135 12 130Q9 127 8 126Q7 125 7 125H6Q6 125 6 125Q6 125 6 125Q-2 118 1 107Q5 97 16 96Q50 97 78 108Q92 114 103 120Q150 97 208 96ZM448 272Q445 186 384 130Q322 74 232 65Q251 8 305 -27Q359 -63 432 -64Q490 -63 537 -40Q548 -46 562 -52Q590 -63 624 -64Q635 -63 639 -53Q642 -42 633 -35Q633 -35 633 -35Q633 -35 633 -35Q633 -35 633 -35Q633 -35 633 -35Q633 -35 633 -34Q632 -34 632 -34Q631 -33 628 -30Q622 -25 615 -16Q606 -5 600 9Q639 53 640 112Q638 183 584 232Q530 281 447 288Q448 280 448 272Z"/></symbol>
<symbol id="fa-s-desktop" viewBox="0 0 576 512"><path transform="translate(0,512) scale(1,-1)" d="M64 448Q37 447 19 429Q1 411 0 384V96Q1 69 19 51Q37 33 64 32H240L229 0H160Q146 0 137 -9Q128 -18 128 -32Q128 -46 137 -55Q146 -64 160 -64H416Q430 -64 439 -55Q448 -46 448 -32Q448 -18 439 -9Q430 0 416 0H347L336 32H512Q539 33 557 51Q575 69 576 96V384Q575 411 557 429Q539 447 512 448H64ZM512 384V160V384V160H64V384H512Z"/></symbol>
<symbol id="fa-s-dollar" viewBox="0 0 320 512"><path transform="translate(0,512) scale(1,-1)" d="M160 448Q174 448 183 439Q192 430 192 416V380Q194 380 197 380Q197 380 197 380Q198 379 198 379L246 371Q259 368 266 357Q274 347 272 333Q269 320 258 313Q248 306 234 308L187 316Q139 323 109 310Q81 298 80 282Q77 267 81 262Q83 256 94 249Q118 234 167 222L170 221Q171 221 171 221Q193 216 216 208Q240 200 260 188Q282 174 296 148Q308 121 302 89Q296 60 279 41Q261 22 236 12Q216 4 192 1V-32Q192 -46 183 -55Q174 -64 160 -64Q146 -64 137 -55Q128 -46 128 -32V3Q128 3 127 3Q127 3 127 3H126Q126 3 126 3Q126 3 126 3Q107 6 82 13Q56 20 35 29Q23 35 18 47Q14 59 19 71Q25 84 37 88Q48 93 61 88Q78 80 99 74Q120 69 136 66Q185 60 212 71Q237 82 239 100Q241 116 238 121Q235 127 225 134Q200 149 151 160L148 161Q148 161 148 161Q148 161 148 161Q147 161 146 162Q124 167 101 175Q78 183 58 195Q36 209 23 235Q10 262 17 294Q22 322 41 341Q60 360 85 370Q105 378 128 381V416Q128 430 137 439Q146 448 160 448Z"/></symbol>
<symbol id="fa-s-donate" viewBox="0 0 512 512"><path transform="translate(0,512) scale(1,-1)" d="M327 44Q293 32 256 32Q219 32 185 44V45Q139 62 106 96Q50 154 48 240Q50 328 109 387Q168 446 256 448Q344 446 403 387Q462 328 464 240Q462 154 406 96Q405 95 405 94Q404 94 403 93Q371 60 327 44ZM256 356Q238 354 236 336V330Q227 328 220 325Q196 315 189 287Q186 272 192 258Q199 245 210 239Q229 227 248 223L250 222Q271 216 280 210Q283 208 283 206Q284 205 284 200Q283 194 276 191Q266 186 247 189Q236 191 221 197Q221 197 221 197Q221 197 221 197Q221 197 221 197Q221 197 221 197Q221 197 221 197Q221 197 221 197Q219 197 218 198Q216 198 214 199Q196 203 189 186Q185 168 202 161Q203 160 206 159Q220 154 236 150V144Q238 126 256 124Q274 126 276 144V149Q284 151 291 154Q317 164 323 193Q326 208 320 222Q314 235 303 243Q283 255 263 260Q263 260 263 260H262Q241 266 232 272Q228 274 228 275Q228 275 228 280Q228 283 237 288Q246 293 265 291Q269 290 276 289Q283 287 287 287Q305 283 311 301Q314 319 297 325Q288 327 276 330V336Q274 354 256 356ZM48 96H64H48H64Q94 57 136 32H64V0H256H448V32H376Q419 57 448 96H464Q484 95 498 82Q511 68 512 48V-16Q511 -36 498 -50Q484 -63 464 -64H48Q28 -63 14 -50Q1 -36 0 -16V48Q1 68 14 82Q28 95 48 96Z"/></symbol>
<symbol id="fa-s-drafting-compass" viewBox="0 0 512 512"><path transform="translate(0,512) scale(1,-1)" d="M352 352Q352 330 343 312L396 221Q360 182 308 167L256 256Q256 256 256 256Q256 256 256 256Q256 256 256 256Q256 256 256 256L188 138Q220 128 256 128Q310 128 355 151Q400 173 431 212Q440 222 452 224Q465 225 476 217Q486 208 488 196Q489 183 481 172Q441 122 383 93Q325 65 256 64Q203 64 155 82L99 -16Q91 -28 79 -35L23 -62Q15 -66 8 -62Q0 -57 0 -48V7Q0 20 7 31L67 135Q47 152 31 172Q23 183 24 196Q26 208 36 217Q47 225 60 224Q72 222 81 212Q90 201 99 192L169 312Q160 330 160 352Q161 393 188 420Q215 447 256 448Q297 447 324 420Q351 393 352 352ZM373 54Q422 74 462 107L506 31Q512 20 512 7V-48Q512 -57 504 -62Q497 -66 489 -62L433 -35Q421 -28 413 -16L373 54ZM256 320Q270 320 279 329Q288 338 288 352Q288 366 279 375Q270 384 256 384Q242 384 233 375Q224 366 224 352Q224 338 233 329Q242 320 256 320Z"/></symbol>
<symbol id="fa-s-file-alt" viewBox="0 0 384 512"><path transform="translate(0,512) scale(1,-1)" d="M64 448Q37 447 19 429Q1 411 0 384V0Q1 -27 19 -45Q37 -63 64 -64H320Q347 -63 365 -45Q383 -27 384 0V288H256Q242 288 233 297Q224 306 224 320V448H64ZM256 448V320V448V320H384L256 448ZM112 192H272H112H272Q287 191 288 176Q287 161 272 160H112Q97 161 96 176Q97 191 112 192ZM112 128H272H112H272Q287 127 288 112Q287 97 272 96H112Q97 97 96 112Q97 127 112 128ZM112 64H272H112H272Q287 63 288 48Q287 33 272 32H112Q97 33 96 48Q97 63 112 64Z"/></symbol>
<symbol id="fa-s-file-invoice-dollar" viewBox="0 0 384 512"><path transform="translate(0,512) scale(1,-1)" d="M64 448Q37 447 19 429Q1 411 0 384V0Q1 -27 19 -45Q37 -63 64 -64H320Q347 -63 365 -45Q383 -27 384 0V288H256Q242 288 233 297Q224 306 224 320V448H64ZM256 448V320V448V320H384L256 448ZM64 368Q65 383 80 384H144Q159 383 160 368Q159 353 144 352H80Q65 353 64 368ZM64 304Q65 319 80 320H144Q159 319 160 304Q159 289 144 288H80Q65 289 64 304ZM192 232Q207 231 208 216V199Q221 197 232 194Q246 189 243 174Q238 160 224 163Q207 168 192 168Q178 168 168 162Q160 158 160 150Q159 145 167 140Q178 134 197 129Q197 129 197 129Q197 129 197 129Q197 129 197 129Q197 129 197 129Q197 129 197 129Q215 124 233 114Q254 103 256 76Q255 47 233 34Q221 27 208 25V8Q207 -7 192 -8Q177 -7 176 8V26Q159 29 145 35Q145 35 145 35Q145 35 145 35Q145 35 145 35Q142 36 139 37Q125 43 129 57Q135 70 149 67Q153 66 156 65Q156 65 156 65Q156 65 156 65Q156 65 156 65Q156 65 156 65Q156 65 156 65Q156 65 156 65Q156 65 156 65Q157 65 157 64Q176 57 192 56Q207 56 216 61Q224 66 224 75Q224 82 216 87Q206 93 187 98L186 99Q186 99 186 99Q186 99 186 99Q168 103 151 112Q131 123 128 150Q130 179 152 190Q163 197 176 199V216Q177 231 192 232Z"/></symbol>
<symbol id="fa-s-fire" viewBox="0 0 448 512"><path transform="translate(0,512) scale(1,-1)" d="M159 443Q173 454 187 442Q228 404 265 358Q281 381 302 401Q316 413 330 401Q356 376 377 345Q399 315 414 283Q430 252 439 223Q448 194 448 171Q447 107 418 54Q388 1 337 -31Q287 -63 224 -64Q161 -63 110 -31Q60 1 30 54Q1 107 0 171Q2 231 45 303Q88 376 159 443ZM226 32Q263 32 295 53Q326 76 334 114Q341 151 323 187Q313 201 300 189L275 160Q262 149 250 161Q237 177 219 200Q201 223 187 240Q175 252 163 241Q137 209 125 186Q112 163 112 141Q113 89 145 61Q177 32 226 32Z"/></symbol>
<symbol id="fa-s-flag" viewBox="0 0 448 512"><path transform="translate(0,512) scale(1,-1)" d="M64 416Q64 430 55 439Q46 448 32 448Q18 448 9 439Q0 430 0 416V384V80V-32Q0 -46 9 -55Q18 -64 32 -64Q46 -64 55 -55Q64 -46 64 -32V96L128 112Q192 127 251 99Q320 65 393 91L427 104Q447 113 448 134V382Q447 400 433 408Q420 417 403 410L394 405Q358 388 320 388Q282 388 247 405Q192 431 133 417L64 400V416Z"/></symbol>
<symbol id="fa-s-flask" viewBox="0 0 448 512"><path transform="translate(0,512) scale(1,-1)" d="M288 448H160H288H128Q114 448 105 439Q96 430 96 416Q96 402 105 393Q114 384 128 384V251Q128 233 119 218L10 42Q0 25 0 5Q1 -24 20 -44Q40 -63 69 -64H379Q408 -63 428 -44Q447 -24 448 5Q448 25 438 42L330 218Q320 233 320 251V384Q334 384 343 393Q352 402 352 416Q352 430 343 439Q334 448 320 448H288ZM192 251V384V251V384H256V251Q256 215 275 184L310 128H139L173 184Q192 215 192 251Z"/></symbol>
<symbol id="fa-s-globe" viewBox="0 0 512 512"><path transform="translate(0,512) scale(1,-1)" d="M58 255 67 239 58 255 67 239Q80 216 105 209L163 192Q190 183 192 154V114Q193 96 208 88Q223 80 224 62V23Q224 11 233 4Q242 -2 254 0Q279 9 287 34L289 45Q296 72 320 85L328 90Q351 104 352 132V140Q352 160 338 174L334 178Q320 192 300 192H257Q240 192 225 200L191 220Q184 224 182 231Q177 247 192 256L198 259Q208 264 219 260L242 253Q256 249 264 260Q271 272 263 283L249 299Q234 320 249 340L265 359Q279 376 269 396L266 400Q261 400 256 400Q185 399 132 359Q79 319 58 255ZM464 192Q463 248 438 293L412 283Q400 278 395 267Q390 256 394 243L410 193Q416 176 433 172L462 164Q464 178 464 192ZM0 192Q1 262 34 320Q68 378 128 414Q189 448 256 448Q323 448 384 414Q444 378 478 320Q511 262 512 192Q511 122 478 64Q444 6 384 -30Q323 -64 256 -64Q189 -64 128 -30Q68 6 34 64Q1 122 0 192Z"/></symbol>
<symbol id="fa-s-graduation-cap" viewBox="0 0 640 512"><path transform="translate(0,512) scale(1,-1)" d="M320 416Q308 416 296 412L16 311Q1 304 0 288Q1 272 16 265L74 244Q49 205 48 156V128Q45 84 26 47Q16 28 3 10Q-2 3 1 -5Q4 -13 12 -16L76 -32Q83 -33 89 -30Q94 -26 96 -19Q106 47 94 89Q89 111 80 131V156Q81 202 108 238Q127 261 157 273L314 335Q328 339 335 326Q339 312 326 305L169 244Q150 236 137 222L296 164Q308 160 320 160Q332 160 344 164L624 265Q639 272 640 288Q639 304 624 311L344 412Q332 416 320 416ZM128 40Q130 12 184 -9Q238 -31 320 -32Q402 -31 456 -9Q510 12 512 40L497 185L355 134Q338 128 320 128Q302 128 286 134L143 185L128 40Z"/></symbol>
<symbol id="fa-s-hands-helping" viewBox="0 0 640 512"><path transform="translate(0,512) scale(1,-1)" d="M544 200V197V200V197L614 266Q630 284 630 306Q630 328 614 346L536 424Q518 440 496 440Q474 440 456 424L416 383Q412 384 408 384H296Q268 383 248 365Q228 348 224 320V200Q224 183 236 172Q247 160 264 160Q281 160 292 172Q304 183 304 200V272Q304 272 304 272Q304 272 304 272V288H320H456Q456 288 456 288Q456 288 456 288H464Q498 287 521 265Q543 242 544 208V200ZM336 256V200V256V200Q335 169 315 149Q295 129 264 128Q233 129 213 149Q193 169 192 200V319Q165 314 144 296Q124 278 116 250L100 193L26 120Q10 102 10 80Q10 58 26 40L104 -38Q122 -54 144 -54Q166 -54 184 -38L221 0Q222 0 223 0Q223 0 224 0H384Q404 0 418 14Q431 28 432 48Q432 56 429 64H432Q452 64 466 78Q479 92 480 112Q480 132 467 145Q486 149 499 164Q512 179 512 200Q511 224 496 240Q480 255 456 256Q456 256 456 256Q456 256 456 256H336Z"/></symbol>
<symbol id="fa-s-header" viewBox="0 0 448 512"><path transform="translate(0,512) scale(1,-1)" d="M0 384Q0 398 9 407Q18 416 32 416H80H128Q142 416 151 407Q160 398 160 384Q160 370 151 361Q142 352 128 352H112V240H336V352H320Q306 352 297 361Q288 370 288 384Q288 398 297 407Q306 416 320 416H368H416Q430 416 439 407Q448 398 448 384Q448 370 439 361Q430 352 416 352H400V208V32H416Q430 32 439 23Q448 14 448 0Q448 -14 439 -23Q430 -32 416 -32H368H320Q306 -32 297 -23Q288 -14 288 0Q288 14 297 23Q306 32 320 32H336V176H112V32H128Q142 32 151 23Q160 14 160 0Q160 -14 151 -23Q142 -32 128 -32H80H32Q18 -32 9 -23Q0 -14 0 0Q0 14 9 23Q18 32 32 32H48V208V352H32Q18 352 9 361Q0 370 0 384Z"/></symbol>
<symbol id="fa-s-heart" viewBox="0 0 512 512"><path transform="translate(0,512) scale(1,-1)" d="M48 148 228 -21 48 148 228 -21Q240 -32 256 -32Q272 -32 284 -21L464 148Q511 192 512 257V263Q511 317 478 355Q445 394 393 404Q358 409 325 399Q293 389 268 364L256 352L244 364Q219 389 187 399Q154 409 119 404Q67 394 34 355Q1 317 0 263V257Q1 192 48 148Z"/></symbol>
<symbol id="fa-s-home" viewBox="0 0 576 512"><path transform="translate(0,512) scale(1,-1)" d="M576 192Q575 179 566 170Q557 161 544 160H512L513 0Q512 -4 512 -8V-24Q512 -41 500 -52Q489 -64 472 -64H456Q454 -64 453 -64Q451 -64 449 -64H416H392Q375 -64 364 -52Q352 -41 352 -24V0V64Q352 78 343 87Q334 96 320 96H256Q242 96 233 87Q224 78 224 64V0V-24Q224 -41 212 -52Q201 -64 184 -64H160H128Q127 -64 126 -64Q125 -64 124 -64Q122 -64 120 -64H104Q87 -64 76 -52Q64 -41 64 -24V88Q64 89 64 91V160H32Q18 161 9 170Q0 179 0 193Q0 206 10 217L266 440Q277 449 288 448Q300 448 309 441L565 216Q577 206 576 192Z"/></symbol>
<symbol id="fa-s-info" viewBox="0 0 192 512"><path transform="translate(0,512) scale(1,-1)" d="M48 368Q49 395 72 410Q96 422 120 410Q143 395 144 368Q143 341 120 326Q96 314 72 326Q49 341 48 368ZM0 224Q0 238 9 247Q18 256 32 256H96Q110 256 119 247Q128 238 128 224V0H160Q174 0 183 -9Q192 -18 192 -32Q192 -46 183 -55Q174 -64 160 -64H32Q18 -64 9 -55Q0 -46 0 -32Q0 -18 9 -9Q18 0 32 0H64V192H32Q18 192 9 201Q0 210 0 224Z"/></symbol>
<symbol id="fa-s-info-circle" viewBox="0 0 512 512"><path transform="translate(0,512) scale(1,-1)" d="M256 -64Q326 -63 384 -30Q442 4 478 64Q512 125 512 192Q512 259 478 320Q442 380 384 414Q326 447 256 448Q186 447 128 414Q70 380 34 320Q0 259 0 192Q0 125 34 64Q70 4 128 -30Q186 -63 256 -64ZM216 112H240H216H240V176H216Q194 178 192 200Q194 222 216 224H264Q286 222 288 200V112H296Q318 110 320 88Q318 66 296 64H216Q194 66 192 88Q194 110 216 112ZM256 320Q270 320 279 311Q288 302 288 288Q288 274 279 265Q270 256 256 256Q242 256 233 265Q224 274 224 288Q224 302 233 311Q242 320 256 320Z"/></symbol>
<symbol id="fa-s-laptop" viewBox="0 0 640 512"><path transform="translate(0,512) scale(1,-1)" d="M128 416Q101 415 83 397Q65 379 64 352V96H128V352H512V96H576V352Q575 379 557 397Q539 415 512 416H128ZM19 64Q2 62 0 45Q1 12 23 -10Q44 -31 77 -32H563Q596 -31 618 -10Q639 12 640 45Q638 62 621 64H19Z"/></symbol>
<symbol id="fa-s-laptop-code" viewBox="0 0 640 512"><path transform="translate(0,512) scale(1,-1)" d="M64 352Q65 379 83 397Q101 415 128 416H512Q539 415 557 397Q575 379 576 352V96H512V352H128V96H64V352ZM0 45Q2 62 19 64H621Q638 62 640 45Q639 12 618 -10Q596 -31 563 -32H77Q44 -31 23 -10Q1 12 0 45ZM281 239 250 208 281 239 250 208 281 177Q295 160 281 143Q264 129 247 143L199 191Q185 208 199 225L247 273Q264 287 281 273Q295 256 281 239ZM393 273 441 225 393 273 441 225Q455 208 441 191L393 143Q376 129 359 143Q345 160 359 177L390 208L359 239Q345 256 359 273Q376 287 393 273Z"/></symbol>
<symbol id="fa-s-link" viewBox="0 0 640 512"><path transform="translate(0,512) scale(1,-1)" d="M580 180Q622 225 622 283Q622 340 580 385Q541 422 489 427Q438 431 394 400L392 399Q381 391 379 378Q377 366 385 354Q393 344 405 342Q418 339 429 347L431 348Q456 365 484 363Q513 361 535 340Q558 315 558 283Q558 250 535 226L422 113Q397 90 365 90Q333 90 308 113Q287 135 285 164Q283 192 300 217L301 219Q308 230 306 242Q304 255 293 263Q282 271 270 269Q257 267 249 256L248 254Q217 210 221 158Q225 107 263 68Q308 26 365 26Q423 26 468 68L580 180ZM60 204Q18 159 18 101Q18 44 60 -1Q99 -38 151 -43Q202 -47 247 -16L248 -15Q259 -7 261 6Q263 18 256 30Q247 40 235 42Q222 45 211 37L209 36Q184 19 156 21Q127 23 105 44Q82 69 82 101Q82 134 106 158L218 271Q243 294 275 294Q307 294 332 271Q353 249 355 220Q357 192 340 167L339 165Q332 154 334 141Q336 129 347 121Q358 113 370 115Q383 117 391 128L392 130Q423 174 419 226Q415 277 377 316Q332 358 275 358Q217 358 173 316L60 204Z"/></symbol>
<symbol id="fa-s-map" viewBox="0 0 576 512"><path transform="translate(0,512) scale(1,-1)" d="M384 -28 192 27 384 -28 192 27V412L384 357V-28ZM416 -27V360V-27V360L543 410Q556 415 565 408Q575 401 576 388V53Q575 38 561 31L416 -27ZM15 353 160 411 15 353 160 411V24L33 -27Q20 -31 11 -24Q1 -17 0 -4V331Q1 346 15 353Z"/></symbol>
<symbol id="fa-s-map-marker" viewBox="0 0 384 512"><path transform="translate(0,512) scale(1,-1)" d="M216 -51Q243 -18 282 38Q321 93 352 152Q382 211 384 256Q382 338 328 392Q274 446 192 448Q110 446 56 392Q2 338 0 256Q2 211 32 152Q63 93 102 38Q141 -18 168 -51Q178 -63 192 -63Q206 -63 216 -51ZM192 320Q228 319 247 288Q265 256 247 224Q228 193 192 192Q156 193 137 224Q119 256 137 288Q156 319 192 320Z"/></symbol>
<symbol id="fa-s-microchip" viewBox="0 0 512 512"><path transform="translate(0,512) scale(1,-1)" d="M176 424Q174 446 152 448Q130 446 128 424V384Q101 383 83 365Q65 347 64 320H24Q2 318 0 296Q2 274 24 272H64V216H24Q2 214 0 192Q2 170 24 168H64V112H24Q2 110 0 88Q2 66 24 64H64Q65 37 83 19Q101 1 128 0V-40Q130 -62 152 -64Q174 -62 176 -40V0H232V-40Q234 -62 256 -64Q278 -62 280 -40V0H336V-40Q338 -62 360 -64Q382 -62 384 -40V0Q411 1 429 19Q447 37 448 64H488Q510 66 512 88Q510 110 488 112H448V168H488Q510 170 512 192Q510 214 488 216H448V272H488Q510 274 512 296Q510 318 488 320H448Q447 347 429 365Q411 383 384 384V424Q382 446 360 448Q338 446 336 424V384H280V424Q278 446 256 448Q234 446 232 424V384H176V424ZM160 320H352H160H352Q366 320 375 311Q384 302 384 288V96Q384 82 375 73Q366 64 352 64H160Q146 64 137 73Q128 82 128 96V288Q128 302 137 311Q146 320 160 320ZM352 288H160H352H160V96H352V288Z"/></symbol>
<symbol id="fa-s-minus-circle" viewBox="0 0 512 512"><path transform="translate(0,512) scale(1,-1)" d="M256 -64Q326 -63 384 -30Q442 4 478 64Q512 125 512 192Q512 259 478 320Q442 380 384 414Q326 447 256 448Q186 447 128 414Q70 380 34 320Q0 259 0 192Q0 125 34 64Q70 4 128 -30Q186 -63 256 -64ZM184 216H328H184H328Q350 214 352 192Q350 170 328 168H184Q162 170 160 192Q162 214 184 216Z"/></symbol>
<symbol id="fa-s-mobile" viewBox="0 0 384 512"><path transform="translate(0,512) scale(1,-1)" d="M16 384Q17 411 35 429Q53 447 80 448H304Q331 447 349 429Q367 411 368 384V0Q367 -27 349 -45Q331 -63 304 -64H80Q53 -63 35 -45Q17 -27 16 0V384ZM224 0Q224 14 215 23Q206 32 192 32Q178 32 169 23Q160 14 160 0Q160 -14 169 -23Q178 -32 192 -32Q206 -32 215 -23Q224 -14 224 0ZM304 384H80H304H80V64H304V384Z"/></symbol>
<symbol id="fa-s-network-wired" viewBox="0 0 640 512"><path transform="translate(0,512) scale(1,-1)" d="M256 384H384H256H384V320H256V384ZM240 448Q220 447 206 434Q193 420 192 400V304Q193 284 206 270Q220 257 240 256H288V224H32Q18 224 9 215Q0 206 0 192Q0 178 9 169Q18 160 32 160H128V128H80Q60 127 46 114Q33 100 32 80V-16Q33 -36 46 -50Q60 -63 80 -64H240Q260 -63 274 -50Q287 -36 288 -16V80Q287 100 274 114Q260 127 240 128H192V160H448V128H400Q380 127 366 114Q353 100 352 80V-16Q353 -36 366 -50Q380 -63 400 -64H560Q580 -63 594 -50Q607 -36 608 -16V80Q607 100 594 114Q580 127 560 128H512V160H608Q622 160 631 169Q640 178 640 192Q640 206 631 215Q622 224 608 224H352V256H400Q420 257 434 270Q447 284 448 304V400Q447 420 434 434Q420 447 400 448H240ZM96 0V64V0V64H224V0H96ZM416 64H544H416H544V0H416V64Z"/></symbol>
<symbol id="fa-s-newspaper" viewBox="0 0 512 512"><path transform="translate(0,512) scale(1,-1)" d="M96 352Q97 379 115 397Q133 415 160 416H448Q475 415 493 397Q511 379 512 352V32Q511 5 493 -13Q475 -31 448 -32H80Q46 -31 23 -9Q1 14 0 48V320Q0 334 9 343Q18 352 32 352Q46 352 55 343Q64 334 64 320V48Q65 33 80 32Q95 33 96 48V352ZM160 328V248V328V248Q162 226 184 224H296Q318 226 320 248V328Q318 350 296 352H184Q162 350 160 328ZM368 336Q369 321 384 320H432Q447 321 448 336Q447 351 432 352H384Q369 351 368 336ZM368 240Q369 225 384 224H432Q447 225 448 240Q447 255 432 256H384Q369 255 368 240ZM160 144Q161 129 176 128H432Q447 129 448 144Q447 159 432 160H176Q161 159 160 144ZM160 48Q161 33 176 32H432Q447 33 448 48Q447 63 432 64H176Q161 63 160 48Z"/></symbol>
<symbol id="fa-s-plane" viewBox="0 0 576 512"><path transform="translate(0,512) scale(1,-1)" d="M482 256Q511 255 542 237Q573 219 576 192Q573 164 542 146Q511 129 482 128H366L265 -48Q256 -63 237 -64H181Q163 -61 166 -44L215 128H112L69 70Q64 64 56 64H14Q1 65 0 78Q0 80 1 82L32 192L1 302Q0 304 0 306Q1 319 14 320H56Q64 320 69 314L112 256H215L166 428Q163 445 181 448H237Q256 447 265 432L366 256H482Z"/></symbol>
<symbol id="fa-s-plus-circle" viewBox="0 0 512 512"><path transform="translate(0,512) scale(1,-1)" d="M256 -64Q326 -63 384 -30Q442 4 478 64Q512 125 512 192Q512 259 478 320Q442 380 384 414Q326 447 256 448Q186 447 128 414Q70 380 34 320Q0 259 0 192Q0 125 34 64Q70 4 128 -30Q186 -63 256 -64ZM232 104V168V104V168H168Q146 170 144 192Q146 214 168 216H232V280Q234 302 256 304Q278 302 280 280V216H344Q366 214 368 192Q366 170 344 168H280V104Q278 82 256 80Q234 82 232 104Z"/></symbol>
<symbol id="fa-s-puzzle-piece" viewBox="0 0 512 512"><path transform="translate(0,512) scale(1,-1)" d="M192 343Q191 357 179 366Q161 380 160 400Q161 420 179 434Q197 447 224 448Q251 447 269 434Q287 420 288 400Q287 380 269 366Q257 357 256 343Q258 322 279 320H336Q356 319 370 306Q383 292 384 272V215Q386 194 407 192Q421 193 430 205Q444 223 464 224Q484 223 498 205Q511 187 512 160Q511 133 498 115Q484 97 464 96Q444 97 430 115Q421 127 407 128Q386 126 384 105V-16Q383 -36 370 -50Q356 -63 336 -64H279Q258 -62 256 -41Q257 -27 269 -18Q287 -4 288 16Q287 36 269 50Q251 63 224 64Q197 63 179 50Q161 36 160 16Q161 -4 179 -18Q191 -27 192 -41Q190 -62 169 -64H48Q28 -63 14 -50Q1 -36 0 -16V105Q2 126 23 128Q37 127 46 115Q60 97 80 96Q100 97 114 115Q127 133 128 160Q127 187 114 205Q100 223 80 224Q60 223 46 205Q37 193 23 192Q2 194 0 215V272Q1 292 14 306Q28 319 48 320H169Q190 322 192 343Z"/></symbol>
<symbol id="fa-s-robot" viewBox="0 0 640 512"><path transform="translate(0,512) scale(1,-1)" d="M320 448Q334 448 343 439Q352 430 352 416V352H472Q503 351 523 331Q543 311 544 280V8Q543 -23 523 -43Q503 -63 472 -64H168Q137 -63 117 -43Q97 -23 96 8V280Q97 311 117 331Q137 351 168 352H288V416Q288 430 297 439Q306 448 320 448ZM208 64Q193 63 192 48Q193 33 208 32H240Q255 33 256 48Q255 63 240 64H208ZM304 64Q289 63 288 48Q289 33 304 32H336Q351 33 352 48Q351 63 336 64H304ZM400 64Q385 63 384 48Q385 33 400 32H432Q447 33 448 48Q447 63 432 64H400ZM264 192Q263 215 244 227Q224 237 204 227Q185 215 184 192Q185 169 204 157Q224 147 244 157Q263 169 264 192ZM416 152Q439 153 451 172Q461 192 451 212Q439 231 416 232Q393 231 381 212Q371 192 381 172Q393 153 416 152ZM48 224H64H48H64V32H48Q28 33 14 46Q1 60 0 80V176Q1 196 14 210Q28 223 48 224ZM592 224Q612 223 626 210Q639 196 640 176V80Q639 60 626 46Q612 33 592 32H576V224H592Z"/></symbol>
<symbol id="fa-s-rocket" viewBox="0 0 512 512"><path transform="translate(0,512) scale(1,-1)" d="M157 63 126 94 157 63 126 94Q113 108 118 126Q123 140 130 160H24Q10 160 3 172Q-3 184 3 196L56 285Q77 319 118 320H200Q204 326 207 331Q249 391 299 417Q349 443 398 447Q447 450 484 443Q502 438 507 420Q514 383 511 334Q507 285 481 235Q455 185 395 143Q390 140 384 136V54Q383 13 349 -8L260 -61Q248 -67 236 -61Q224 -54 224 -40V67Q203 60 188 55Q170 50 157 63ZM384 280Q407 281 419 300Q429 320 419 340Q407 359 384 360Q361 359 349 340Q339 320 349 300Q361 281 384 280Z"/></symbol>
<symbol id="fa-s-school" viewBox="0 0 640 512"><path transform="translate(0,512) scale(1,-1)" d="M338 443Q320 453 302 443L166 352H48Q28 351 14 338Q1 324 0 304V-16Q1 -36 14 -50Q28 -63 48 -64H256V32Q257 59 275 77Q293 95 320 96Q347 95 365 77Q383 59 384 32V-64H592Q612 -63 626 -50Q639 -36 640 -16V304Q639 324 626 338Q612 351 592 352H474L338 443ZM96 256H128H96H128Q143 255 144 240V176Q143 161 128 160H96Q81 161 80 176V240Q81 255 96 256ZM496 240Q497 255 512 256H544Q559 255 560 240V176Q559 161 544 160H512Q497 161 496 176V240ZM96 128H128H96H128Q143 127 144 112V48Q143 33 128 32H96Q81 33 80 48V112Q81 127 96 128ZM496 112Q497 127 512 128H544Q559 127 560 112V48Q559 33 544 32H512Q497 33 496 48V112ZM232 272Q234 322 276 348Q320 372 364 348Q406 322 408 272Q406 222 364 196Q320 172 276 196Q234 222 232 272ZM320 320Q305 319 304 304V272Q305 257 320 256H352Q367 257 368 272Q367 287 352 288H336V304Q335 319 320 320Z"/></symbol>
<symbol id="fa-s-search" viewBox="0 0 512 512"><path transform="translate(0,512) scale(1,-1)" d="M416 240Q415 170 376 117L503 -9Q512 -19 512 -32Q512 -45 503 -55Q493 -64 480 -64Q467 -64 457 -55L331 72Q278 33 208 32Q120 34 61 93Q2 152 0 240Q2 328 61 387Q120 446 208 448Q296 446 355 387Q414 328 416 240ZM208 96Q247 96 280 115Q313 134 333 168Q352 202 352 240Q352 278 333 312Q313 346 280 365Q247 384 208 384Q169 384 136 365Q103 346 83 312Q64 278 64 240Q64 202 83 168Q103 134 136 115Q169 96 208 96Z"/></symbol>
<symbol id="fa-s-shield" viewBox="0 0 512 512"><path transform="translate(0,512) scale(1,-1)" d="M256 448Q263 448 269 445L458 365Q475 358 485 343Q496 328 496 308Q497 257 479 188Q461 119 414 54Q368 -12 282 -55Q256 -67 230 -55Q144 -12 98 54Q51 119 33 188Q15 257 16 308Q16 328 27 343Q37 358 54 365L243 445Q249 448 256 448Z"/></symbol>
<symbol id="fa-s-sitemap" viewBox="0 0 576 512"><path transform="translate(0,512) scale(1,-1)" d="M208 368Q209 388 222 402Q236 415 256 416H320Q340 415 354 402Q367 388 368 368V304Q367 284 354 270Q340 257 320 256H312V216H464Q488 215 504 200Q519 184 520 160V128H528Q548 127 562 114Q575 100 576 80V16Q575 -4 562 -18Q548 -31 528 -32H464Q444 -31 430 -18Q417 -4 416 16V80Q417 100 430 114Q444 127 464 128H472V160Q471 167 464 168H312V128H320Q340 127 354 114Q367 100 368 80V16Q367 -4 354 -18Q340 -31 320 -32H256Q236 -31 222 -18Q209 -4 208 16V80Q209 100 222 114Q236 127 256 128H264V168H112Q105 167 104 160V128H112Q132 127 146 114Q159 100 160 80V16Q159 -4 146 -18Q132 -31 112 -32H48Q28 -31 14 -18Q1 -4 0 16V80Q1 100 14 114Q28 127 48 128H56V160Q57 184 72 200Q88 215 112 216H264V256H256Q236 257 222 270Q209 284 208 304V368Z"/></symbol>
<symbol id="fa-s-suitcase" viewBox="0 0 512 512"><path transform="translate(0,512) scale(1,-1)" d="M176 392V352V392V352H336V392Q335 399 328 400H184Q177 399 176 392ZM128 352V392V352V392Q129 416 144 432Q160 447 184 448H328Q352 447 368 432Q383 416 384 392V352V320V-32H128V320V352ZM64 352H96H64H96V-32H64Q37 -31 19 -13Q1 5 0 32V288Q1 315 19 333Q37 351 64 352ZM448 -32H416H448H416V352H448Q475 351 493 333Q511 315 512 288V32Q511 5 493 -13Q475 -31 448 -32Z"/></symbol>
<symbol id="fa-s-tags" viewBox="0 0 512 512"><path transform="translate(0,512) scale(1,-1)" d="M345 409 473 280 345 409 473 280Q512 238 512 184Q512 130 473 88L361 -25Q344 -39 327 -25Q313 -8 327 9L439 122Q464 149 464 184Q464 219 439 246L311 375Q297 392 311 409Q328 423 345 409ZM0 218V368V218V368Q1 388 14 402Q28 415 48 416H198Q224 416 243 397L411 229Q430 210 430 184Q430 159 411 139L277 5Q258 -13 232 -13Q207 -13 187 5L19 173Q0 192 0 218ZM144 304Q144 318 135 327Q126 336 112 336Q98 336 89 327Q80 318 80 304Q80 290 89 281Q98 272 112 272Q126 272 135 281Q144 290 144 304Z"/></symbol>
<symbol id="fa-s-th" viewBox="0 0 512 512"><path transform="translate(0,512) scale(1,-1)" d="M64 416Q37 415 19 397Q1 379 0 352V32Q1 5 19 -13Q37 -31 64 -32H448Q475 -31 493 -13Q511 5 512 32V352Q511 379 493 397Q475 415 448 416H64ZM152 352V288V352V288H64V352H152ZM208 352H296H208H296V288H208V352ZM448 352V288V352V288H360V352H448ZM64 224H152H64H152V160H64V224ZM296 224V160V224V160H208V224H296ZM360 224H448H360H448V160H360V224ZM152 96V32V96V32H64V96H152ZM208 96H296H208H296V32H208V96ZM448 96V32V96V32H360V96H448Z"/></symbol>
<symbol id="fa-s-university" viewBox="0 0 512 512"><path transform="translate(0,512) scale(1,-1)" d="M243 445 19 349 243 445 19 349Q-3 338 1 314Q7 290 32 288V280Q34 258 56 256H456Q478 258 480 280V288Q505 290 511 314Q515 338 493 349L269 445Q256 451 243 445ZM128 224H64H128H64V28Q63 27 62 27L14 -5Q-4 -19 1 -41Q9 -63 32 -64H480Q503 -63 511 -41Q516 -19 498 -5L450 27Q449 27 449 27Q448 27 448 28V224H384V32H344V224H280V32H232V224H168V32H128V224ZM256 384Q270 384 279 375Q288 366 288 352Q288 338 279 329Q270 320 256 320Q242 320 233 329Q224 338 224 352Q224 366 233 375Q242 384 256 384Z"/></symbol>
<symbol id="fa-s-user-friends" viewBox="0 0 640 512"><path transform="translate(0,512) scale(1,-1)" d="M96 320Q96 355 113 384Q130 413 160 431Q190 448 224 448Q258 448 288 431Q318 413 335 384Q352 355 352 320Q352 285 335 256Q318 227 288 209Q258 192 224 192Q190 192 160 209Q130 227 113 256Q96 285 96 320ZM0 -34Q2 41 52 92Q103 142 178 144H270Q345 142 396 92Q446 41 448 -34Q448 -47 439 -55Q431 -64 418 -64H30Q17 -64 9 -55Q0 -47 0 -34ZM609 -64H472H609H472Q480 -50 480 -32V-24Q480 22 461 61Q443 100 410 128Q410 128 411 128Q414 128 417 128H479Q547 126 593 81Q638 35 640 -33Q640 -46 631 -55Q622 -64 609 -64ZM432 192Q384 193 353 225Q383 266 384 320Q384 361 366 394Q394 415 432 416Q480 415 511 383Q543 352 544 304Q543 256 511 225Q480 193 432 192Z"/></symbol>
<symbol id="fa-s-user-md" viewBox="0 0 448 512"><path transform="translate(0,512) scale(1,-1)" d="M224 192Q259 192 288 209Q317 226 335 256Q352 286 352 320Q352 354 335 384Q317 414 288 431Q259 448 224 448Q189 448 160 431Q131 414 113 384Q96 354 96 320Q96 286 113 256Q131 226 160 209Q189 192 224 192ZM128 137Q71 119 36 73Q1 28 0 -34Q0 -47 9 -55Q17 -64 30 -64H418Q431 -64 439 -55Q448 -47 448 -34Q447 28 412 73Q377 119 320 137V86Q341 80 354 64Q368 47 368 24V-16Q367 -31 352 -32H336Q321 -31 320 -16Q321 -1 336 0V24Q336 38 327 47Q318 56 304 56Q290 56 281 47Q272 38 272 24V0Q287 -1 288 -16Q287 -31 272 -32H256Q241 -31 240 -16V24Q240 47 254 64Q267 80 288 86V143Q279 144 270 144H178Q169 144 160 143V78Q178 72 189 58Q200 43 200 24Q199 0 184 -16Q168 -31 144 -32Q120 -31 104 -16Q89 0 88 24Q88 43 99 58Q110 72 128 78V137ZM144 0Q166 2 168 24Q166 46 144 48Q122 46 120 24Q122 2 144 0Z"/></symbol>
<symbol id="fa-s-user-tie" viewBox="0 0 448 512"><path transform="translate(0,512) scale(1,-1)" d="M96 320Q96 285 113 256Q130 227 160 209Q190 192 224 192Q258 192 288 209Q318 227 335 256Q352 285 352 320Q352 355 335 384Q318 413 288 431Q258 448 224 448Q190 448 160 431Q130 413 113 384Q96 355 96 320ZM191 120 209 89 191 120 209 89 176 -35 140 112Q135 125 122 123Q68 109 35 67Q1 24 0 -33Q0 -46 9 -55Q18 -64 31 -64H162Q162 -64 162 -64Q162 -64 163 -64H168H286Q285 -64 286 -64Q286 -64 286 -64H417Q430 -64 439 -55Q448 -46 448 -33Q447 24 413 67Q380 109 326 123Q313 125 308 112L272 -35L239 89L258 120Q262 128 258 136Q253 143 244 144H224H204Q195 143 190 136Q186 128 191 120Z"/></symbol>
<symbol id="fa-s-users" viewBox="0 0 640 512"><path transform="translate(0,512) scale(1,-1)" d="M144 448Q189 447 213 408Q235 368 213 328Q189 289 144 288Q99 289 75 328Q53 368 75 408Q99 447 144 448ZM512 448Q557 447 581 408Q603 368 581 328Q557 289 512 288Q467 289 443 328Q421 368 443 408Q467 447 512 448ZM0 149Q1 195 31 225Q61 255 107 256H149Q173 256 194 246Q192 235 192 224Q194 165 235 128Q235 128 235 128Q235 128 235 128H21Q2 130 0 149ZM405 128Q405 128 405 128Q405 128 405 128Q446 165 448 224Q448 235 446 246Q467 256 491 256H533Q579 255 609 225Q639 195 640 149Q638 130 619 128H405ZM224 224Q224 250 237 272Q250 294 272 307Q295 320 320 320Q345 320 368 307Q390 294 403 272Q416 250 416 224Q416 198 403 176Q390 154 368 141Q345 128 320 128Q295 128 272 141Q250 154 237 176Q224 198 224 224ZM128 -37Q129 19 167 57Q205 95 261 96H379Q435 95 473 57Q511 19 512 -37Q510 -62 485 -64H155Q130 -62 128 -37Z"/></symbol>
<symbol id="fa-s-video-camera" viewBox="0 0 576 512"><path transform="translate(0,512) scale(1,-1)" d="M0 320Q1 347 19 365Q37 383 64 384H320Q347 383 365 365Q383 347 384 320V64Q383 37 365 19Q347 1 320 0H64Q37 1 19 19Q1 37 0 64V320ZM559 348Q575 339 576 320V64Q575 45 559 36Q542 27 526 37L430 101L416 111V128V256V273L430 283L526 347Q542 356 559 348Z"/></symbol>
</svg>
