<?xml version="1.0" encoding="UTF-8"?>
<svg id="Layer_2" data-name="Layer 2" xmlns="http://www.w3.org/2000/svg" viewBox="0 0 226.37 41.92">
  <defs>
    <style>
      .cls-1 {
        fill: #00a0dd;
      }
    </style>
  </defs>
  <g id="Bolt">
    <g>
      <path class="cls-1" d="M36.86,31.96v6.45c-4.3,2.34-9.26,3.52-14.88,3.52-4.57,0-8.45-.92-11.63-2.75-3.18-1.84-5.7-4.37-7.56-7.59S0,24.87,0,21.12c0-5.96,2.12-10.97,6.37-15.03C10.62,2.03,15.86,0,22.09,0c4.3,0,9.07,1.12,14.33,3.37v6.3c-4.79-2.73-9.46-4.1-14.03-4.1s-8.58,1.48-11.67,4.44-4.64,6.67-4.64,11.12,1.52,8.18,4.57,11.07c3.05,2.89,6.94,4.34,11.69,4.34s9.8-1.52,14.53-4.57Z"/>
      <path class="cls-1" d="M62.64,12.81h4.12v16.26c0,2.2-.16,3.86-.48,4.98-.32,1.12-.72,2.05-1.19,2.8-.47.75-1.05,1.41-1.73,2-2.27,1.96-5.24,2.93-8.9,2.93s-6.73-.97-8.98-2.91c-.68-.6-1.26-1.27-1.73-2.02-.47-.75-.86-1.66-1.17-2.74-.31-1.08-.46-2.78-.46-5.09V12.81h4.12v16.26c0,2.69.31,4.57.92,5.62s1.55,1.9,2.81,2.53,2.74.95,4.45.95c2.43,0,4.42-.64,5.95-1.91.81-.68,1.39-1.49,1.74-2.42s.53-2.52.53-4.78V12.81Z"/>
      <path class="cls-1" d="M72.57,41.46V12.81h7.18c2.9,0,5.2.72,6.9,2.15,1.7,1.44,2.55,3.38,2.55,5.82,0,1.67-.42,3.11-1.25,4.33s-2.03,2.13-3.59,2.73c.92.6,1.81,1.42,2.69,2.46s2.11,2.85,3.69,5.43c1,1.63,1.8,2.85,2.4,3.67l1.52,2.05h-4.88l-1.25-1.89c-.04-.07-.12-.18-.25-.35l-.8-1.13-1.27-2.09-1.37-2.24c-.85-1.18-1.62-2.11-2.33-2.81-.7-.7-1.34-1.2-1.91-1.5-.57-.31-1.52-.46-2.86-.46h-1.07v12.47h-4.1ZM77.9,16.29h-1.23v9.04h1.56c2.08,0,3.5-.18,4.28-.53s1.38-.89,1.8-1.61c.43-.72.65-1.53.65-2.45s-.24-1.72-.72-2.45-1.15-1.25-2.02-1.55-2.31-.45-4.32-.45Z"/>
      <path class="cls-1" d="M128.54,12.4c4.43,0,8.11,1.4,11.06,4.2s4.42,6.32,4.42,10.54-1.49,7.72-4.46,10.49-6.72,4.15-11.24,4.15-7.92-1.38-10.79-4.15c-2.88-2.77-4.31-6.24-4.31-10.41s1.45-7.82,4.34-10.62,6.56-4.2,10.99-4.2ZM128.71,16.29c-3.28,0-5.97,1.03-8.08,3.08s-3.17,4.67-3.17,7.85,1.06,5.66,3.18,7.71,4.77,3.08,7.95,3.08,5.86-1.05,8-3.14,3.21-4.7,3.21-7.81-1.07-5.59-3.21-7.66-4.76-3.11-7.88-3.11Z"/>
      <path class="cls-1" d="M156.16,29.45l-3.12-1.89c-1.96-1.19-3.35-2.37-4.17-3.52s-1.24-2.48-1.24-3.99c0-2.26.78-4.09,2.35-5.5s3.6-2.11,6.1-2.11,4.59.67,6.58,2.01v4.66c-2.06-1.99-4.29-2.98-6.67-2.98-1.34,0-2.44.31-3.3.93s-1.29,1.41-1.29,2.38c0,.86.32,1.66.95,2.41.63.75,1.65,1.54,3.06,2.36l3.13,1.85c3.49,2.09,5.24,4.74,5.24,7.97,0,2.3-.77,4.16-2.31,5.6-1.54,1.44-3.54,2.15-6,2.15-2.83,0-5.41-.87-7.73-2.61v-5.21c2.21,2.81,4.78,4.21,7.69,4.21,1.29,0,2.35-.36,3.21-1.07.85-.72,1.28-1.61,1.28-2.69,0-1.74-1.26-3.4-3.77-4.96Z"/>
      <path class="cls-1" d="M168.34,12.81h4.1v28.65h-4.1V12.81Z"/>
      <path class="cls-1" d="M176.36,12.76h23.93v3.65h-9.99v25.04h-4.12v-25.04h-9.82v-3.65Z"/>
      <path class="cls-1" d="M221.4,12.81h4.98l-10.58,13.49v15.16h-4.2v-15.16l-10.58-13.49h4.95l7.67,9.88,7.77-9.88Z"/>
    </g>
    <path class="cls-1" d="M101.9,30.3c-.1.96-.19,1.88-.29,2.81-.1.93-.19,1.85-.29,2.78-.1.92-.19,1.85-.29,2.77-.11.99-.28,2.69-.27,2.78,1.74-4.91,3.49-9.81,5.24-14.73-.53.17-1.03.36-1.56.53.11-.4.22-.76.32-1.13.1-.37.21-.73.31-1.1.1-.37.21-.73.31-1.1.1-.36.21-.72.31-1.08.1-.37.21-.73.31-1.1.1-.37.21-.73.31-1.1.1-.36.21-.72.31-1.11-.16.05-.31.09-.45.13-.15.04-.29.09-.44.13-.14.04-.28.1-.44.11.12-.42.24-.82.36-1.21.12-.4.23-.79.35-1.19.12-.4.23-.79.35-1.19.12-.4.24-.8.36-1.2.12-.4.24-.79.35-1.19.11-.39.24-.78.35-1.2-.03,0-.04,0-.06.01-.27.06-.54.12-.82.18-.36.08-.72.15-1.08.23-.36.08-.72.16-1.08.24-.4.09-.8.17-1.2.26-.4.09-.8.18-1.2.26-.4.09-.8.17-1.19.26-.07.02-.07.02-.08.15-.03.3-.05.6-.08.89-.04.5-.09.99-.13,1.49-.04.5-.09,1-.13,1.5-.05.57-.1,1.14-.15,1.71-.05.57-.1,1.14-.15,1.71-.05.57-.1,1.14-.15,1.71-.01.12-.02.25-.03.39.24-.1.47-.19.7-.28.23-.09.46-.19.7-.27-.3,2.61-.6,5.2-.89,7.81.5-.22.98-.43,1.48-.65Z"/>
  </g>
</svg>